<svg preserveAspectRatio="none" width="100%" height="100%" overflow="visible" style="display: block;" viewBox="0 0 11.5216 11.5216" fill="none" xmlns="http://www.w3.org/2000/svg">
<g id="Icon">
<path id="Vector" d="M5.76063 6.24069V10.0812" stroke="var(--stroke-0, #71717B)" stroke-width="0.720098" stroke-linecap="round" stroke-linejoin="round"/>
<path id="Vector_2" d="M1.91997 7.15216C1.5633 6.78776 1.29424 6.34696 1.13316 5.86316C0.97208 5.37936 0.923212 4.86525 0.990255 4.35977C1.0573 3.85429 1.23849 3.37069 1.52012 2.94561C1.80174 2.52053 2.17641 2.16511 2.61574 1.90627C3.05507 1.64744 3.54755 1.49198 4.05586 1.45166C4.56417 1.41135 5.07499 1.48724 5.54963 1.67359C6.02427 1.85994 6.45028 2.15186 6.79539 2.52723C7.14049 2.90261 7.39565 3.3516 7.54154 3.84019H8.40085C8.86436 3.84014 9.3156 3.98917 9.6879 4.26526C10.0602 4.54136 10.3338 4.92988 10.4684 5.37343C10.6029 5.81698 10.5912 6.29205 10.435 6.72845C10.2789 7.16485 9.98645 7.53944 9.60102 7.79689" stroke="var(--stroke-0, #71717B)" stroke-width="0.720098" stroke-linecap="round" stroke-linejoin="round"/>
<path id="Vector_3" d="M3.8405 8.16095L5.76076 6.24069L7.68102 8.16095" stroke="var(--stroke-0, #71717B)" stroke-width="0.720098" stroke-linecap="round" stroke-linejoin="round"/>
</g>
</svg>
