<svg width="42" height="42" viewBox="0 0 42 42" fill="none" xmlns="http://www.w3.org/2000/svg">
<path d="M32.1163 0H9.12333C4.08471 0 0 4.08471 0 9.12333V32.8767C0 37.9153 4.08471 42 9.12333 42H32.876C37.9153 42 42 37.9153 42 32.8767V9.86039L32.1163 0ZM14.4989 8.36363H8.43157V14.431C8.43157 14.9045 8.04726 15.2888 7.57373 15.2888C7.1002 15.2888 6.71588 14.9045 6.71588 14.431V7.80569C6.71588 7.16676 7.23539 6.64726 7.87431 6.64726H14.4996C14.9731 6.64726 15.3575 7.03157 15.3575 7.5051C15.3575 7.97863 14.9731 8.36294 14.4996 8.36294L14.4989 8.36363Z" fill="white" fill-opacity="0.49"/>
<path d="M9.12305 0.0683594H32.0869L41.9316 9.88965V32.877C41.9315 37.8775 37.8773 41.9316 32.876 41.9316H9.12305C4.12255 41.9315 0.0685134 37.8775 0.0683594 32.877V9.12305C0.0685145 4.12255 4.12255 0.0685145 9.12305 0.0683594ZM7.87402 6.5791C7.19734 6.57926 6.64747 7.12895 6.64746 7.80566V14.4307C6.64746 14.9419 7.06203 15.3572 7.57324 15.3574C8.08467 15.3574 8.5 14.9421 8.5 14.4307V8.43262H14.5273L14.5293 8.42969C15.027 8.41397 15.4258 8.00637 15.4258 7.50488C15.4257 6.99368 15.0112 6.57931 14.5 6.5791H7.87402Z" stroke="url(#paint0_linear_16_11)" stroke-opacity="0.5" stroke-width="0.137255"/>
<path d="M42 9.88235H36.2691C33.9765 9.88235 32.1177 8.01909 32.1177 5.72115V0C32.2185 0 32.316 0.0398926 32.3873 0.111424L34.3231 2.04553L39.9429 7.658L41.8799 9.59279C41.9568 9.66982 42 9.77368 42 9.88235Z" fill="white" fill-opacity="0.7"/>
<defs>
<linearGradient id="paint0_linear_16_11" x1="21" y1="0" x2="21" y2="42" gradientUnits="userSpaceOnUse">
<stop stop-color="white" stop-opacity="0.5"/>
<stop offset="1" stop-color="#666666" stop-opacity="0.5"/>
</linearGradient>
</defs>
</svg>
