<svg width="306" height="306" viewBox="0 0 306 306" fill="none" xmlns="http://www.w3.org/2000/svg">
<path d="M233.99 0H66.47C29.76 0 0 29.76 0 66.47V239.53C0 276.24 29.76 306 66.47 306H239.525C276.24 306 306 276.24 306 239.53V71.84L233.99 0ZM105.635 60.935H61.43V105.14C61.43 108.59 58.63 111.39 55.18 111.39C51.73 111.39 48.93 108.59 48.93 105.14V56.87C48.93 52.215 52.715 48.43 57.37 48.43H105.64C109.09 48.43 111.89 51.23 111.89 54.68C111.89 58.13 109.09 60.93 105.64 60.93L105.635 60.935Z" fill="white" fill-opacity="0.2"/>
<path d="M66.4697 0.5H233.783L305.5 72.0479V239.53C305.5 275.964 275.964 305.5 239.525 305.5H66.4697C30.0361 305.5 0.500148 275.964 0.5 239.53V66.4697L0.505859 65.6172C0.958882 29.8602 29.8602 0.958882 65.6172 0.505859L66.4697 0.5ZM57.3701 47.9297C52.439 47.9297 48.4297 51.939 48.4297 56.8701V105.14C48.4297 108.866 51.4537 111.889 55.1797 111.89C58.9058 111.89 61.9297 108.866 61.9297 105.14V61.4346H105.842L105.852 61.4238C109.48 61.3119 112.39 58.335 112.39 54.6797C112.389 50.9537 109.366 47.9297 105.64 47.9297H57.3701Z" stroke="url(#paint0_linear_7_12)" stroke-opacity="0.5"/>
<path d="M306 72H264.246C247.543 72 234 58.4248 234 41.6826V0C234.735 0 235.445 0.290646 235.965 0.811804L250.068 14.9031L291.012 55.794L305.125 69.8903C305.685 70.4516 306 71.2082 306 72Z" fill="white" fill-opacity="0.5"/>
<defs>
<linearGradient id="paint0_linear_7_12" x1="153" y1="0" x2="153" y2="306" gradientUnits="userSpaceOnUse">
<stop stop-color="white" stop-opacity="0.5"/>
<stop offset="1" stop-color="#666666" stop-opacity="0.5"/>
</linearGradient>
</defs>
</svg>
